<svg width="150" height="35" viewBox="0 0 150 35" fill="none" xmlns="http://www.w3.org/2000/svg">
<g clip-path="url(#clip0_4438_14521)">
<path fill-rule="evenodd" clip-rule="evenodd" d="M13.0883 8.23828H23.3383C28.8416 8.23828 30.9133 10.9216 30.5931 14.8637C30.064 21.3719 25.9788 24.9725 20.5601 24.9725H17.8244C17.0809 24.9725 16.5808 25.4465 16.3797 26.7308L15.2182 34.1971C15.1415 34.6813 14.8769 34.9616 14.48 34.9998H8.04007C7.43418 34.9998 7.21986 34.5539 7.37861 33.5881L11.305 9.65256C11.4585 8.69442 12.0035 8.23828 13.0883 8.23828Z" fill="#009EE3"/>
<path fill-rule="evenodd" clip-rule="evenodd" d="M57.589 7.79492C61.0471 7.79492 64.2379 9.60162 63.8014 14.1044C63.2722 19.4556 60.2956 22.4167 55.5993 22.4294H51.4956C50.9056 22.4294 50.6198 22.8932 50.4664 23.8437L49.6726 28.7032C49.5536 29.4371 49.162 29.7989 48.5852 29.7989H44.7673C44.1587 29.7989 43.9471 29.4243 44.082 28.586L47.2332 9.10981C47.3893 8.15168 47.7624 7.79492 48.4423 7.79492H57.581H57.589ZM51.3713 18.2223H54.4801C56.4248 18.1509 57.716 16.8539 57.8456 14.5146C57.925 13.0698 56.9116 12.0352 55.3003 12.0428L52.374 12.0556L51.3713 18.2223ZM74.181 28.3082C74.5302 28.0024 74.8847 27.8444 74.8345 28.2216L74.7101 29.1236C74.6466 29.5951 74.8398 29.8448 75.2948 29.8448H78.6868C79.2583 29.8448 79.5361 29.6231 79.6763 28.772L81.7665 16.1378C81.8724 15.5033 81.711 15.1924 81.2109 15.1924H77.4803C77.1443 15.1924 76.9802 15.3734 76.8929 15.8677L76.7553 16.6449C76.6839 17.0501 76.4908 17.1215 76.3108 16.7137C75.6785 15.2714 74.0645 14.6242 71.8129 14.6752C66.5821 14.7796 63.0552 18.6045 62.6769 23.5073C62.3858 27.2991 65.2063 30.278 68.9263 30.278C71.6251 30.278 72.8316 29.5135 74.1915 28.3159L74.181 28.3082ZM71.3393 26.3639C69.0877 26.3639 67.5188 24.6337 67.8442 22.5135C68.1696 20.3934 70.2757 18.6631 72.5273 18.6631C74.7789 18.6631 76.3479 20.3934 76.0225 22.5135C75.697 24.6337 73.5936 26.3639 71.3393 26.3639ZM88.4049 15.1517H84.9654C84.2563 15.1517 83.9679 15.6613 84.1928 16.2882L88.4631 28.3311L84.2748 34.0621C83.9229 34.5412 84.1954 34.9769 84.6902 34.9769H88.5557C88.781 35.002 89.0091 34.9642 89.2127 34.868C89.4162 34.7717 89.5868 34.6211 89.704 34.4342L102.838 16.2907C103.243 15.7327 103.052 15.1466 102.388 15.1466H98.729C98.1019 15.1466 97.8505 15.3861 97.4907 15.8881L92.0138 23.5328L89.5665 15.8703C89.4236 15.4065 89.0664 15.1517 88.4076 15.1517H88.4049Z" fill="#113984"/>
<path fill-rule="evenodd" clip-rule="evenodd" d="M116.5 7.79416C119.958 7.79416 123.149 9.60086 122.713 14.1036C122.184 19.4549 119.207 22.4159 114.511 22.4287H110.41C109.82 22.4287 109.534 22.8924 109.38 23.8429L108.587 28.7024C108.468 29.4363 108.076 29.7982 107.499 29.7982H103.681C103.073 29.7982 102.861 29.4236 102.996 28.5852L106.153 9.10395C106.309 8.14582 106.682 7.78906 107.362 7.78906H116.5V7.79416ZM110.283 18.2215H113.392C115.336 18.1502 116.627 16.8531 116.757 14.5139C116.836 13.069 115.823 12.0344 114.212 12.0421L111.285 12.0548L110.283 18.2215ZM133.092 28.3075C133.442 28.0017 133.796 27.8437 133.746 28.2208L133.622 29.1229C133.558 29.5943 133.751 29.844 134.206 29.844H137.598C138.17 29.844 138.448 29.6223 138.588 28.7712L140.678 16.1371C140.784 15.5026 140.622 15.1917 140.122 15.1917H136.397C136.061 15.1917 135.897 15.3726 135.81 15.867L135.672 16.6442C135.601 17.0493 135.407 17.1207 135.228 16.713C134.595 15.2707 132.981 14.6234 130.73 14.6744C125.499 14.7789 121.972 18.6038 121.594 23.5066C121.303 27.2984 124.123 30.2772 127.843 30.2772C130.542 30.2772 131.748 29.5128 133.108 28.3151L133.092 28.3075ZM130.253 26.3631C128.002 26.3631 126.433 24.6329 126.758 22.5128C127.084 20.3926 129.19 18.6624 131.441 18.6624C133.693 18.6624 135.262 20.3926 134.937 22.5128C134.611 24.6329 132.505 26.3631 130.253 26.3631ZM145.898 29.8644H141.982C141.914 29.8674 141.846 29.8558 141.783 29.8305C141.72 29.8052 141.664 29.7668 141.618 29.7182C141.573 29.6695 141.539 29.6117 141.519 29.5488C141.499 29.486 141.494 29.4198 141.503 29.3548L144.943 8.36752C144.976 8.22428 145.058 8.09596 145.176 8.00343C145.294 7.9109 145.442 7.8596 145.594 7.85787H149.51C149.578 7.85494 149.646 7.86652 149.709 7.89181C149.772 7.91709 149.828 7.95545 149.874 8.00413C149.919 8.05282 149.954 8.11064 149.973 8.17345C149.993 8.23627 149.998 8.30254 149.989 8.36752L146.549 29.3548C146.517 29.4989 146.436 29.6284 146.317 29.722C146.199 29.8155 146.051 29.8675 145.898 29.8695V29.8644Z" fill="#009EE3"/>
<path fill-rule="evenodd" clip-rule="evenodd" d="M6.67763 0H16.9382C19.8274 0 23.2564 0.0891882 25.5477 2.03859C27.0796 3.34074 27.8839 5.41245 27.6987 7.6447C27.069 15.19 22.3833 19.4175 16.0968 19.4175H11.038C10.1754 19.4175 9.60656 19.968 9.36314 21.4561L7.95027 30.1201C7.85767 30.6807 7.60631 31.012 7.15652 31.0528H0.825054C0.123909 31.0528 -0.124801 30.5431 0.0577613 29.4168L4.60859 1.64616C4.79115 0.530031 5.4288 0 6.67763 0Z" fill="#113984"/>
<path fill-rule="evenodd" clip-rule="evenodd" d="M9.51172 20.5774L11.3029 9.65315C11.4591 8.69502 12.0041 8.23633 13.0889 8.23633H23.3388C25.0348 8.23633 26.408 8.49115 27.4822 8.96258C26.453 15.6797 21.9418 19.4103 16.0363 19.4103H10.9854C10.3081 19.4129 9.8107 19.7391 9.51172 20.5774Z" fill="#172C70"/>
</g>
<defs>
<clipPath id="clip0_4438_14521">
<rect width="150" height="35" fill="white"/>
</clipPath>
</defs>
</svg>
