<svg width="16" height="16" viewBox="0 0 16 16" fill="none" xmlns="http://www.w3.org/2000/svg">
<path d="M14.8581 3.12316C14.724 2.78884 14.4922 2.50276 14.1929 2.30238C13.8936 2.102 13.5408 1.99663 13.1806 2.00008H3.82162C3.46426 1.99876 3.11446 2.10298 2.81608 2.29965C2.51771 2.49633 2.28404 2.77671 2.14436 3.10565C2.00469 3.43459 1.96524 3.79744 2.03095 4.14871C2.09665 4.49998 2.2646 4.82404 2.51373 5.08025L6.5298 9.25742V13.6715C6.5298 13.7972 6.57972 13.9177 6.66859 14.0066C6.75746 14.0955 6.87799 14.1454 7.00367 14.1454C7.06042 14.146 7.11675 14.1355 7.16952 14.1146L9.97721 13.0674C10.0679 13.0335 10.1461 12.9726 10.2011 12.893C10.2562 12.8133 10.2855 12.7187 10.2852 12.6219V9.25742L14.46 5.0992C14.7179 4.84835 14.8938 4.52542 14.9649 4.17278C15.0359 3.82014 14.9987 3.45427 14.8581 3.12316ZM13.7919 4.42867L9.47728 8.73143C9.38829 8.81989 9.33801 8.94003 9.33748 9.06551V12.2926L7.47754 12.9892V9.0584C7.47766 8.93557 7.43009 8.81749 7.34485 8.72906L3.19848 4.41446C3.08013 4.29233 3.00042 4.13802 2.96932 3.97082C2.93821 3.80363 2.95709 3.63098 3.02359 3.47446C3.09009 3.31793 3.20127 3.1845 3.34321 3.09083C3.48515 2.99716 3.65156 2.94742 3.82162 2.94783H13.1806C13.352 2.94811 13.5195 2.9992 13.662 3.09466C13.8044 3.19011 13.9153 3.32564 13.9807 3.48412C14.0462 3.6426 14.0631 3.81691 14.0295 3.98503C13.9959 4.15315 13.9132 4.30753 13.7919 4.42867Z" fill="white"/>
</svg>
